<?xml version="1.0" encoding="UTF-8" standalone="no"?>
<!-- Created with Inkscape (http://www.inkscape.org/) -->
<svg
   xmlns:dc="http://purl.org/dc/elements/1.1/"
   xmlns:cc="http://creativecommons.org/ns#"
   xmlns:rdf="http://www.w3.org/1999/02/22-rdf-syntax-ns#"
   xmlns:svg="http://www.w3.org/2000/svg"
   xmlns="http://www.w3.org/2000/svg"
   xmlns:sodipodi="http://sodipodi.sourceforge.net/DTD/sodipodi-0.dtd"
   xmlns:inkscape="http://www.inkscape.org/namespaces/inkscape"
   version="1.0"
   width="300"
   height="300"
   viewBox="0 0 300 300"
   id="svg13158"
   xml:space="preserve"
   sodipodi:version="0.32"
   inkscape:version="0.46"
   sodipodi:docname="Oilers Vintage Logo.svg"
   inkscape:output_extension="org.inkscape.output.svg.inkscape"><metadata
   id="metadata27"><rdf:RDF><cc:Work
       rdf:about=""><dc:format>image/svg+xml</dc:format><dc:type
         rdf:resource="http://purl.org/dc/dcmitype/StillImage" /></cc:Work></rdf:RDF></metadata><sodipodi:namedview
   inkscape:window-height="669"
   inkscape:window-width="640"
   inkscape:pageshadow="2"
   inkscape:pageopacity="0.0"
   guidetolerance="10.0"
   gridtolerance="10.0"
   objecttolerance="10.0"
   borderopacity="1.0"
   bordercolor="#666666"
   pagecolor="#ffffff"
   id="base"
   showgrid="false"
   inkscape:zoom="1.54"
   inkscape:cx="150"
   inkscape:cy="150"
   inkscape:window-x="92"
   inkscape:window-y="92"
   inkscape:current-layer="svg13158" /><defs
   id="defs47"><inkscape:perspective
   sodipodi:type="inkscape:persp3d"
   inkscape:vp_x="0 : 150 : 1"
   inkscape:vp_y="0 : 1000 : 0"
   inkscape:vp_z="300 : 150 : 1"
   inkscape:persp3d-origin="150 : 100 : 1"
   id="perspective29" />
	
</defs>
<g
   transform="translate(-7.7189785,-10.357488)"
   id="g13181">
		<g
   id="XMLID_1_">
			<g
   id="g6">
				<path
   d="M 266.829,266.377 C 266.829,265.888 266.438,265.497 265.938,265.497 L 263.988,265.497 L 263.988,267.268 L 265.938,267.268 C 266.439,267.268 266.829,266.877 266.829,266.377 z M 266.759,268.688 L 268.389,272.158 L 266.689,272.158 L 265.089,268.828 L 263.988,268.828 L 263.988,272.158 L 262.468,272.158 L 262.468,263.938 L 265.938,263.938 C 267.289,263.938 268.388,265.038 268.388,266.377 C 268.389,267.447 267.719,268.327 266.759,268.688 z"
   id="path8"
   style="fill:#003876;fill-opacity:1" />
				<path
   d="M 265.409,260.848 C 269.379,260.848 272.608,264.077 272.608,268.048 C 272.608,272.018 269.379,275.247 265.409,275.247 C 261.438,275.247 258.209,272.018 258.209,268.048 C 258.209,264.077 261.439,260.848 265.409,260.848 z M 271.089,268.048 C 271.089,264.928 268.528,262.407 265.409,262.407 C 262.289,262.407 259.768,264.928 259.768,268.048 C 259.768,271.167 262.289,273.728 265.409,273.728 C 268.529,273.728 271.089,271.167 271.089,268.048 z"
   id="path10"
   style="fill:#003876;fill-opacity:1" />
				<path
   d="M 235.829,156.547 C 235.829,157.997 236.759,158.917 238.068,159.947 C 240.119,161.577 250.798,170.197 250.798,170.197 C 252.008,171.508 254.668,172.857 254.668,177.897 C 254.668,182.047 255.338,195.517 249.487,209.527 C 243.708,223.327 236.998,234.147 224.977,247.517 L 224.977,175.097 L 234.797,175.097 L 234.797,189.027 C 234.947,194.207 243.097,193.637 243.097,189.777 L 243.097,179.987 C 243.097,178.357 243.097,177.897 242.217,177.147 C 241.327,176.407 228.417,166.047 227.357,165.307 C 226.328,164.557 225.717,163.357 225.717,160.407 L 225.717,133.097 C 225.897,129.517 227.747,125.657 233.387,125.657 L 247.177,125.657 C 252.537,126.257 255.407,128.027 255.407,134.737 L 255.407,154.597 L 243.986,154.597 L 243.986,147.647 C 243.986,141.827 235.827,141.687 235.827,147.467 L 235.827,156.547 L 235.829,156.547 z"
   id="path12"
   style="fill:#003876;fill-opacity:1" />
				<path
   d="M 224.979,175.098 L 224.979,247.518 C 237,234.148 243.709,223.328 249.489,209.528 C 255.34,195.518 254.67,182.049 254.67,177.898 C 254.67,172.858 252.01,171.508 250.8,170.198 C 250.8,170.198 240.12,161.578 238.07,159.948 C 236.76,158.918 235.831,157.998 235.831,156.548 L 235.831,147.468 C 235.831,141.688 243.99,141.828 243.99,147.648 L 243.99,154.598 L 255.411,154.598 L 255.411,134.738 C 255.411,128.028 252.541,126.258 247.181,125.658 L 233.391,125.658 C 227.751,125.658 225.901,129.518 225.721,133.098 L 225.721,160.408 C 225.721,163.358 226.331,164.558 227.361,165.308 C 228.422,166.048 241.332,176.408 242.221,177.148 C 243.101,177.898 243.101,178.358 243.101,179.988 L 243.101,189.778 C 243.101,193.638 234.952,194.208 234.801,189.028 L 234.801,175.098 L 224.979,175.098 z M 144.369,143.177 C 149.439,143.177 151.499,145.267 151.499,148.387 C 151.599,151.047 151.499,187.437 151.499,187.437 C 151.499,190.416 150.359,192.647 148.229,192.647 L 148.229,265.567 C 148.229,272.338 143.199,273.547 143.199,273.547 C 147.239,274.007 153.269,274.257 157.449,274.257 C 162.279,274.257 166.569,274.076 171.569,273.257 C 176,272.536 179.599,269.777 180.609,265.626 L 182.67,265.906 C 181.73,270.476 179.83,271.696 179.83,271.696 C 186.22,270.246 194.229,267.266 200.12,264.746 C 203.239,263.396 204.45,259.396 204.45,254.786 C 204.45,254.656 204.45,254.036 204.45,253.007 L 206.889,253.007 C 206.999,260.137 206.109,261.486 205.789,261.736 C 211.999,258.156 215.579,255.886 220.438,251.446 C 222.068,249.956 222.598,247.797 222.778,240.386 L 222.778,192.646 C 220.258,192.646 218.629,190.306 218.629,187.396 L 218.629,169.316 C 218.629,164.986 214.909,163.216 214.909,163.216 C 214.909,163.216 214.449,163.356 216.969,161.296 C 219.519,159.206 218.919,154.166 218.919,152.215 L 218.919,135.905 C 218.919,128.165 215.119,126.255 209.799,125.655 L 183.659,125.655 L 183.659,143.175 L 181.039,143.175 L 181.039,125.755 L 144.369,125.755 L 144.369,143.177 L 144.369,143.177 z M 127.379,46.427 C 122.379,53.337 115.919,63.337 115.919,77.347 C 115.919,99.127 134.329,119.487 157.739,119.487 C 181.109,119.487 199.519,99.127 199.519,77.347 C 199.519,63.337 193.059,53.337 188.099,46.427 C 238.489,59.797 275.62,105.757 275.62,160.337 C 275.62,225.457 222.819,278.267 157.74,278.267 C 92.62,278.267 39.82,225.456 39.82,160.337 C 39.819,105.757 76.979,59.797 127.379,46.427 z M 60.029,184.277 C 61.629,206.767 69.999,224.777 83.009,239.777 C 87.299,244.707 92.339,242.617 92.339,234.607 L 94.789,234.607 L 94.789,237.407 C 94.789,239.357 93.939,242.798 91.379,244.317 C 89.009,245.707 86.879,244.957 86.879,244.957 C 92.549,251.167 98.939,256.277 106.139,260.388 C 109.259,262.198 112.519,259.678 112.519,255.528 L 114.719,255.528 L 114.719,257.308 C 114.719,261.838 110.359,262.618 110.359,262.618 C 119.119,267.339 127.309,270.778 137.559,272.378 C 142.309,273.118 146.029,270.068 146.029,265.179 L 146.029,174.489 L 137.589,174.489 L 137.589,187.229 C 137.589,191.059 137.099,192.689 133.549,192.689 C 129.899,192.689 129.789,190.378 129.719,186.909 C 129.679,185.419 129.719,150.019 129.719,148.389 C 129.719,144.949 133.339,143.179 135.499,143.179 L 135.499,125.659 L 115.599,125.659 L 115.599,143.179 L 113.259,143.179 L 113.259,125.659 L 94.859,125.659 L 94.859,143.179 L 92.339,143.179 L 92.339,136.649 C 92.339,126.859 85.029,125.519 80.599,125.519 L 71.699,125.519 C 62.479,125.519 60.029,133.989 60.029,140.379 L 60.029,184.277 L 60.029,184.277 z"
   id="path14"
   style="fill:#ffffff" />
				<path
   d="M 127.629,77.808 C 127.629,95.648 143.449,107.428 157.739,107.428 C 171.999,107.428 187.809,95.648 187.809,77.808 C 187.809,73.168 186.749,64.688 180.33,54.578 L 165.29,30.888 C 233.39,34.788 287.43,91.258 287.43,160.338 C 287.43,231.978 229.34,290.068 157.74,290.068 C 86.1,290.068 28.01,231.978 28.01,160.338 C 28.01,91.258 82.05,34.788 150.15,30.888 L 135.11,54.578 C 128.689,64.688 127.629,73.168 127.629,77.808 z M 39.819,160.337 C 39.819,225.457 92.619,278.267 157.739,278.267 C 222.819,278.267 275.619,225.456 275.619,160.337 C 275.619,105.757 238.488,59.797 188.098,46.427 C 193.058,53.337 199.518,63.337 199.518,77.347 C 199.518,99.127 181.108,119.487 157.738,119.487 C 134.328,119.487 115.918,99.127 115.918,77.347 C 115.918,63.337 122.378,53.337 127.378,46.427 C 76.979,59.797 39.819,105.757 39.819,160.337 z"
   id="path16"
   style="fill:#003876;fill-opacity:1" />
				<path
   d="M 199.479,154.848 C 199.479,160.058 206.819,159.848 206.819,154.598 C 206.819,149.838 207.029,150.378 206.819,147.288 C 206.469,141.828 199.479,142.038 199.479,147.498 L 199.479,154.848 z M 198.949,187.438 C 198.949,190.558 201.959,192.758 204.449,192.758 C 204.449,193.848 204.449,242.907 204.449,253.008 C 204.449,254.037 204.449,254.657 204.449,254.787 C 204.449,259.397 203.238,263.397 200.119,264.747 C 194.228,267.268 186.219,270.247 179.829,271.697 C 179.829,271.697 181.728,270.477 182.669,265.907 C 183.009,264.287 183.229,262.237 183.199,259.678 C 183.199,257.588 183.199,195.028 183.199,192.648 C 185.579,192.648 187.949,190.418 187.949,187.438 L 187.949,148.528 C 187.949,145.448 185.329,143.178 183.659,143.178 L 183.659,125.658 L 209.799,125.658 C 215.119,126.258 218.919,128.168 218.919,135.908 L 218.919,152.218 C 218.919,154.168 219.519,159.208 216.969,161.299 C 214.449,163.359 214.909,163.219 214.909,163.219 C 214.909,163.219 218.629,164.989 218.629,169.319 L 218.629,187.399 C 218.629,190.309 220.259,192.649 222.778,192.649 L 222.778,240.389 C 222.598,247.799 222.068,249.958 220.438,251.449 C 215.579,255.889 211.999,258.159 205.789,261.739 C 206.108,261.489 206.999,260.139 206.889,253.01 L 206.889,174.209 C 206.889,170.77 205.469,168.39 202.919,168.39 C 199.799,168.39 198.949,171.09 198.949,173.61 L 198.949,187.438 L 198.949,187.438 z"
   id="path18"
   style="fill:#003876;fill-opacity:1" />
				<path
   d="M 199.479,147.498 C 199.479,142.038 206.469,141.828 206.819,147.288 C 207.029,150.378 206.819,149.838 206.819,154.598 C 206.819,159.848 199.479,160.058 199.479,154.848 L 199.479,147.498 z"
   id="path20"
   style="fill:#ffffff" />
				<path
   d="M 202.919,168.388 C 205.469,168.388 206.889,170.768 206.889,174.207 L 206.889,253.008 L 204.45,253.008 C 204.45,242.907 204.45,193.848 204.45,192.758 C 201.96,192.758 198.95,190.558 198.95,187.438 L 198.95,173.608 C 198.949,171.088 199.799,168.388 202.919,168.388 z"
   id="path22"
   style="fill:#ffffff" />
				<path
   d="M 157.739,33.197 C 166.319,54.647 179.659,62.877 179.659,78.237 C 179.659,88.737 170.969,98.947 157.739,98.947 C 144.469,98.947 135.779,88.737 135.779,78.237 C 135.779,62.878 149.119,54.648 157.739,33.197 z"
   id="path24"
   style="fill:#e56b1f" />
				<path
   d="M 167.209,192.898 C 163.549,192.898 163.409,190.448 163.379,186.688 C 163.379,186.088 163.379,177.468 163.379,170.768 L 172.599,170.768 L 172.599,157.998 L 163.379,157.998 C 163.379,153.528 163.379,149.598 163.379,149.058 C 163.379,145.658 164.009,143.038 167.988,143.038 C 171.289,143.038 171.709,146.008 171.709,148.528 L 171.709,154.278 L 181.039,154.278 L 181.039,143.178 L 183.659,143.178 C 185.329,143.178 187.949,145.448 187.949,148.528 L 187.949,187.438 C 187.949,190.417 185.579,192.648 183.199,192.648 C 183.199,195.028 183.199,257.588 183.199,259.678 C 183.228,262.238 183.009,264.287 182.669,265.907 L 180.608,265.627 C 180.798,264.867 180.898,264.048 180.898,263.188 L 180.898,174.598 L 171.249,174.598 C 171.249,174.598 171.249,181.088 171.249,186.688 C 171.249,191.197 170.749,192.898 167.209,192.898 z"
   id="path26"
   style="fill:#ffffff" />
				<path
   d="M 163.379,186.688 C 163.409,190.448 163.549,192.898 167.209,192.898 C 170.749,192.898 171.249,191.198 171.249,186.688 C 171.249,181.088 171.249,174.598 171.249,174.598 L 180.898,174.598 L 180.898,263.188 C 180.898,264.048 180.798,264.868 180.608,265.627 C 179.598,269.777 175.999,272.537 171.568,273.258 C 166.568,274.077 162.278,274.258 157.448,274.258 C 153.268,274.258 147.238,274.008 143.198,273.548 C 143.198,273.548 148.228,272.338 148.228,265.568 L 148.228,192.648 C 150.358,192.648 151.498,190.418 151.498,187.438 C 151.498,187.438 151.598,151.048 151.498,148.388 C 151.498,145.268 149.438,143.178 144.368,143.178 L 144.368,125.758 L 181.038,125.758 L 181.038,143.178 L 181.038,154.278 L 171.708,154.278 L 171.708,148.528 C 171.708,146.008 171.288,143.038 167.987,143.038 C 164.008,143.038 163.378,145.658 163.378,149.058 C 163.378,149.598 163.378,153.528 163.378,157.998 L 172.598,157.998 L 172.598,170.768 L 163.378,170.768 C 163.379,177.468 163.379,186.088 163.379,186.688 z"
   id="path28"
   style="fill:#003876;fill-opacity:1" />
				<path
   d="M 157.739,98.947 C 170.969,98.947 179.659,88.737 179.659,78.237 C 179.659,62.877 166.318,54.647 157.739,33.197 C 149.119,54.647 135.779,62.877 135.779,78.237 C 135.779,88.737 144.469,98.947 157.739,98.947 z M 28.009,160.337 C 28.009,231.977 86.099,290.067 157.739,290.067 C 229.339,290.067 287.429,231.977 287.429,160.337 C 287.429,91.257 233.389,34.787 165.289,30.887 L 180.329,54.577 C 186.749,64.687 187.808,73.167 187.808,77.807 C 187.808,95.647 171.998,107.427 157.738,107.427 C 143.448,107.427 127.628,95.647 127.628,77.807 C 127.628,73.167 128.688,64.687 135.108,54.577 L 150.148,30.887 C 82.049,34.788 28.009,91.257 28.009,160.337 z M 157.739,24.367 C 232.709,24.367 293.709,85.367 293.709,160.337 C 293.709,235.347 232.709,296.347 157.739,296.347 C 82.729,296.347 21.729,235.347 21.729,160.337 C 21.729,85.367 82.729,24.367 157.739,24.367 z"
   id="path30"
   style="fill:#ffffff" />
				<path
   d="M 129.719,186.907 C 129.789,190.377 129.899,192.687 133.549,192.687 C 137.099,192.687 137.589,191.057 137.589,187.227 L 137.589,174.487 L 146.029,174.487 L 146.029,265.177 C 146.029,270.067 142.309,273.116 137.559,272.376 C 127.309,270.776 119.119,267.337 110.359,262.616 C 110.359,262.616 114.719,261.837 114.719,257.306 L 114.719,255.526 L 114.719,192.646 C 117.199,192.646 119.789,190.306 119.789,187.436 L 119.789,148.386 C 119.789,144.946 117.659,143.176 115.599,143.176 L 115.599,125.656 L 135.499,125.656 L 135.499,143.176 C 133.339,143.176 129.719,144.946 129.719,148.386 C 129.719,150.018 129.679,185.417 129.719,186.907 z"
   id="path32"
   style="fill:#003876;fill-opacity:1" />
				<path
   d="M 108.939,148.387 C 108.939,145.267 111.209,143.177 113.259,143.177 L 115.599,143.177 C 117.659,143.177 119.789,144.947 119.789,148.387 L 119.789,187.437 C 119.789,190.307 117.199,192.647 114.719,192.647 L 114.719,255.527 L 112.519,255.527 L 112.519,192.647 C 110.529,192.647 108.939,190.237 108.939,187.437 L 108.939,148.387 z"
   id="path34"
   style="fill:#ffffff" />
				<path
   d="M 112.519,192.648 L 112.519,255.528 C 112.519,259.678 109.259,262.198 106.139,260.388 C 98.939,256.278 92.549,251.167 86.879,244.957 C 86.879,244.957 89.009,245.707 91.379,244.317 C 93.939,242.797 94.789,239.357 94.789,237.407 L 94.789,234.607 L 94.789,192.647 C 97.229,192.647 99.149,189.917 99.149,187.537 L 99.149,148.387 C 99.149,144.767 97.019,143.177 94.859,143.177 L 94.859,125.657 L 113.259,125.657 L 113.259,143.177 C 111.209,143.177 108.939,145.267 108.939,148.387 L 108.939,187.437 C 108.939,190.237 110.529,192.648 112.519,192.648 z"
   id="path36"
   style="fill:#003876;fill-opacity:1" />
				<path
   d="M 94.859,143.177 C 97.019,143.177 99.149,144.767 99.149,148.387 L 99.149,187.537 C 99.149,189.917 97.229,192.647 94.789,192.647 L 94.789,234.607 L 92.339,234.607 L 92.339,143.177 L 94.859,143.177 L 94.859,143.177 z"
   id="path38"
   style="fill:#ffffff" />
				<path
   d="M 80.599,125.518 C 85.029,125.518 92.339,126.858 92.339,136.648 L 92.339,143.178 L 92.339,234.608 C 92.339,242.618 87.299,244.708 83.009,239.778 C 69.999,224.778 61.629,206.768 60.029,184.278 L 60.029,140.378 C 60.029,133.988 62.479,125.518 71.699,125.518 L 80.599,125.518 L 80.599,125.518 z M 71.239,188.287 C 71.239,194.848 80.459,194.527 80.459,188.008 L 80.459,147.538 C 80.029,141.298 71.239,141.578 71.239,147.818 L 71.239,188.287 z"
   id="path40"
   style="fill:#003876;fill-opacity:1" />
				<path
   d="M 71.239,147.817 C 71.239,141.577 80.029,141.297 80.459,147.537 L 80.459,188.007 C 80.459,194.527 71.239,194.847 71.239,188.286 L 71.239,147.817 z"
   id="path42"
   style="fill:#ffffff" />
			</g>
			<g
   id="g44">
			</g>
		</g>
	</g>
</svg>